<mxfile host="app.diagrams.net" modified="2023-12-11T09:31:55.981Z" agent="Mozilla/5.0 (Windows NT 10.0; Win64; x64) AppleWebKit/537.36 (KHTML, like Gecko) Chrome/120.0.0.0 Safari/537.36 Edg/120.0.0.0" etag="_pSEURB0ghJpB618ZVFY" version="22.1.7" type="device">
  <diagram name="Page-1" id="sST-JtxojvfRG1GIPXTA">
    <mxGraphModel dx="983" dy="554" grid="1" gridSize="10" guides="1" tooltips="1" connect="1" arrows="1" fold="1" page="1" pageScale="1" pageWidth="827" pageHeight="1169" math="0" shadow="0">
      <root>
        <mxCell id="0" />
        <mxCell id="1" parent="0" />
        <mxCell id="90E-FSOEFrYvkNQ4BVbp-1" value="" style="rounded=0;whiteSpace=wrap;html=1;" vertex="1" parent="1">
          <mxGeometry x="120" y="100" width="700" height="530" as="geometry" />
        </mxCell>
        <mxCell id="90E-FSOEFrYvkNQ4BVbp-2" value="USED AT" style="rounded=0;whiteSpace=wrap;html=1;" vertex="1" parent="1">
          <mxGeometry x="120" y="100" width="90" height="50" as="geometry" />
        </mxCell>
        <mxCell id="90E-FSOEFrYvkNQ4BVbp-3" value="" style="rounded=0;whiteSpace=wrap;html=1;" vertex="1" parent="1">
          <mxGeometry x="210" y="100" width="250" height="50" as="geometry" />
        </mxCell>
        <mxCell id="90E-FSOEFrYvkNQ4BVbp-4" value="" style="rounded=0;whiteSpace=wrap;html=1;" vertex="1" parent="1">
          <mxGeometry x="460" y="100" width="30" height="10" as="geometry" />
        </mxCell>
        <mxCell id="90E-FSOEFrYvkNQ4BVbp-5" value="" style="rounded=0;whiteSpace=wrap;html=1;" vertex="1" parent="1">
          <mxGeometry x="460" y="110" width="30" height="10" as="geometry" />
        </mxCell>
        <mxCell id="90E-FSOEFrYvkNQ4BVbp-6" value="" style="rounded=0;whiteSpace=wrap;html=1;" vertex="1" parent="1">
          <mxGeometry x="460" y="120" width="30" height="10" as="geometry" />
        </mxCell>
        <mxCell id="90E-FSOEFrYvkNQ4BVbp-7" value="" style="rounded=0;whiteSpace=wrap;html=1;" vertex="1" parent="1">
          <mxGeometry x="460" y="130" width="30" height="10" as="geometry" />
        </mxCell>
        <mxCell id="90E-FSOEFrYvkNQ4BVbp-8" value="" style="rounded=0;whiteSpace=wrap;html=1;" vertex="1" parent="1">
          <mxGeometry x="460" y="140" width="30" height="10" as="geometry" />
        </mxCell>
        <mxCell id="90E-FSOEFrYvkNQ4BVbp-9" value="" style="rounded=0;whiteSpace=wrap;html=1;" vertex="1" parent="1">
          <mxGeometry x="490" y="100" width="120" height="10" as="geometry" />
        </mxCell>
        <mxCell id="90E-FSOEFrYvkNQ4BVbp-10" value="" style="rounded=0;whiteSpace=wrap;html=1;" vertex="1" parent="1">
          <mxGeometry x="610" y="110" width="120" height="10" as="geometry" />
        </mxCell>
        <mxCell id="90E-FSOEFrYvkNQ4BVbp-11" value="" style="rounded=0;whiteSpace=wrap;html=1;" vertex="1" parent="1">
          <mxGeometry x="490" y="120" width="120" height="10" as="geometry" />
        </mxCell>
        <mxCell id="90E-FSOEFrYvkNQ4BVbp-12" value="" style="rounded=0;whiteSpace=wrap;html=1;" vertex="1" parent="1">
          <mxGeometry x="490" y="130" width="120" height="10" as="geometry" />
        </mxCell>
        <mxCell id="90E-FSOEFrYvkNQ4BVbp-13" value="" style="rounded=0;whiteSpace=wrap;html=1;" vertex="1" parent="1">
          <mxGeometry x="490" y="140" width="120" height="10" as="geometry" />
        </mxCell>
        <mxCell id="90E-FSOEFrYvkNQ4BVbp-14" value="" style="rounded=0;whiteSpace=wrap;html=1;" vertex="1" parent="1">
          <mxGeometry x="610" y="100" width="120" height="10" as="geometry" />
        </mxCell>
        <mxCell id="90E-FSOEFrYvkNQ4BVbp-15" value="" style="rounded=0;whiteSpace=wrap;html=1;" vertex="1" parent="1">
          <mxGeometry x="610" y="120" width="120" height="10" as="geometry" />
        </mxCell>
        <mxCell id="90E-FSOEFrYvkNQ4BVbp-16" value="" style="rounded=0;whiteSpace=wrap;html=1;" vertex="1" parent="1">
          <mxGeometry x="610" y="130" width="120" height="10" as="geometry" />
        </mxCell>
        <mxCell id="90E-FSOEFrYvkNQ4BVbp-17" value="" style="rounded=0;whiteSpace=wrap;html=1;" vertex="1" parent="1">
          <mxGeometry x="610" y="140" width="120" height="10" as="geometry" />
        </mxCell>
        <mxCell id="90E-FSOEFrYvkNQ4BVbp-18" value="" style="rounded=0;whiteSpace=wrap;html=1;" vertex="1" parent="1">
          <mxGeometry x="610" y="100" width="120" height="10" as="geometry" />
        </mxCell>
        <mxCell id="90E-FSOEFrYvkNQ4BVbp-19" value="" style="rounded=0;whiteSpace=wrap;html=1;" vertex="1" parent="1">
          <mxGeometry x="720" y="100" width="100" height="50" as="geometry" />
        </mxCell>
        <mxCell id="90E-FSOEFrYvkNQ4BVbp-29" value="A-1" style="rounded=0;whiteSpace=wrap;html=1;" vertex="1" parent="1">
          <mxGeometry x="120" y="580" width="90" height="50" as="geometry" />
        </mxCell>
        <mxCell id="90E-FSOEFrYvkNQ4BVbp-30" value="NODE:" style="text;html=1;strokeColor=none;fillColor=none;align=center;verticalAlign=middle;whiteSpace=wrap;rounded=0;" vertex="1" parent="1">
          <mxGeometry x="120" y="580" width="40" height="10" as="geometry" />
        </mxCell>
        <mxCell id="90E-FSOEFrYvkNQ4BVbp-31" value="Реєстрація нового пацієнта" style="rounded=0;whiteSpace=wrap;html=1;" vertex="1" parent="1">
          <mxGeometry x="210" y="580" width="410" height="50" as="geometry" />
        </mxCell>
        <mxCell id="90E-FSOEFrYvkNQ4BVbp-32" value="TITTLE" style="text;html=1;strokeColor=none;fillColor=none;align=center;verticalAlign=middle;whiteSpace=wrap;rounded=0;" vertex="1" parent="1">
          <mxGeometry x="200" y="580" width="60" height="10" as="geometry" />
        </mxCell>
        <mxCell id="90E-FSOEFrYvkNQ4BVbp-33" value="" style="rounded=0;whiteSpace=wrap;html=1;" vertex="1" parent="1">
          <mxGeometry x="620" y="580" width="200" height="50" as="geometry" />
        </mxCell>
        <mxCell id="90E-FSOEFrYvkNQ4BVbp-34" value="NUMBER" style="text;html=1;strokeColor=none;fillColor=none;align=center;verticalAlign=middle;whiteSpace=wrap;rounded=0;" vertex="1" parent="1">
          <mxGeometry x="620" y="580" width="60" height="10" as="geometry" />
        </mxCell>
        <mxCell id="90E-FSOEFrYvkNQ4BVbp-35" value="" style="rounded=0;whiteSpace=wrap;html=1;" vertex="1" parent="1">
          <mxGeometry x="730" y="610" width="90" height="20" as="geometry" />
        </mxCell>
        <mxCell id="90E-FSOEFrYvkNQ4BVbp-42" style="edgeStyle=orthogonalEdgeStyle;rounded=0;orthogonalLoop=1;jettySize=auto;html=1;entryX=0;entryY=0.25;entryDx=0;entryDy=0;" edge="1" parent="1" source="90E-FSOEFrYvkNQ4BVbp-36" target="90E-FSOEFrYvkNQ4BVbp-38">
          <mxGeometry relative="1" as="geometry">
            <Array as="points">
              <mxPoint x="290" y="230" />
              <mxPoint x="290" y="285" />
            </Array>
          </mxGeometry>
        </mxCell>
        <mxCell id="90E-FSOEFrYvkNQ4BVbp-36" value="Прийом запиту на реєстрацію" style="rounded=0;whiteSpace=wrap;html=1;" vertex="1" parent="1">
          <mxGeometry x="175" y="200" width="110" height="60" as="geometry" />
        </mxCell>
        <mxCell id="90E-FSOEFrYvkNQ4BVbp-43" style="edgeStyle=orthogonalEdgeStyle;rounded=0;orthogonalLoop=1;jettySize=auto;html=1;entryX=0;entryY=0.25;entryDx=0;entryDy=0;" edge="1" parent="1" source="90E-FSOEFrYvkNQ4BVbp-38" target="90E-FSOEFrYvkNQ4BVbp-39">
          <mxGeometry relative="1" as="geometry">
            <Array as="points">
              <mxPoint x="420" y="300" />
              <mxPoint x="420" y="355" />
            </Array>
          </mxGeometry>
        </mxCell>
        <mxCell id="90E-FSOEFrYvkNQ4BVbp-38" value="Прийом даних про пацієнта" style="rounded=0;whiteSpace=wrap;html=1;" vertex="1" parent="1">
          <mxGeometry x="304" y="270" width="110" height="60" as="geometry" />
        </mxCell>
        <mxCell id="90E-FSOEFrYvkNQ4BVbp-39" value="Перевірка введених даних на корректність та повноту" style="rounded=0;whiteSpace=wrap;html=1;" vertex="1" parent="1">
          <mxGeometry x="430" y="340" width="110" height="60" as="geometry" />
        </mxCell>
        <mxCell id="90E-FSOEFrYvkNQ4BVbp-45" style="edgeStyle=orthogonalEdgeStyle;rounded=0;orthogonalLoop=1;jettySize=auto;html=1;entryX=0;entryY=0.25;entryDx=0;entryDy=0;" edge="1" parent="1" source="90E-FSOEFrYvkNQ4BVbp-40" target="90E-FSOEFrYvkNQ4BVbp-41">
          <mxGeometry relative="1" as="geometry">
            <Array as="points">
              <mxPoint x="680" y="440" />
              <mxPoint x="680" y="495" />
            </Array>
          </mxGeometry>
        </mxCell>
        <mxCell id="90E-FSOEFrYvkNQ4BVbp-40" value="Створення та заповнення картки пацієнта у системі" style="rounded=0;whiteSpace=wrap;html=1;" vertex="1" parent="1">
          <mxGeometry x="560" y="410" width="110" height="60" as="geometry" />
        </mxCell>
        <mxCell id="90E-FSOEFrYvkNQ4BVbp-41" value="Підтвердження або відмова у реєстрації пацієнта" style="rounded=0;whiteSpace=wrap;html=1;" vertex="1" parent="1">
          <mxGeometry x="690" y="480" width="110" height="60" as="geometry" />
        </mxCell>
        <mxCell id="90E-FSOEFrYvkNQ4BVbp-44" style="edgeStyle=orthogonalEdgeStyle;rounded=0;orthogonalLoop=1;jettySize=auto;html=1;entryX=0.002;entryY=0.35;entryDx=0;entryDy=0;entryPerimeter=0;" edge="1" parent="1" source="90E-FSOEFrYvkNQ4BVbp-39" target="90E-FSOEFrYvkNQ4BVbp-40">
          <mxGeometry relative="1" as="geometry">
            <Array as="points">
              <mxPoint x="550" y="370" />
              <mxPoint x="550" y="431" />
            </Array>
          </mxGeometry>
        </mxCell>
        <mxCell id="90E-FSOEFrYvkNQ4BVbp-46" value="" style="endArrow=classic;html=1;rounded=0;exitX=0;exitY=0.245;exitDx=0;exitDy=0;exitPerimeter=0;entryX=0;entryY=0.5;entryDx=0;entryDy=0;" edge="1" parent="1" source="90E-FSOEFrYvkNQ4BVbp-1" target="90E-FSOEFrYvkNQ4BVbp-36">
          <mxGeometry relative="1" as="geometry">
            <mxPoint x="140" y="230" as="sourcePoint" />
            <mxPoint x="170" y="229.86" as="targetPoint" />
          </mxGeometry>
        </mxCell>
        <mxCell id="90E-FSOEFrYvkNQ4BVbp-49" value="Пацієнт" style="edgeLabel;html=1;align=center;verticalAlign=middle;resizable=0;points=[];" vertex="1" connectable="0" parent="90E-FSOEFrYvkNQ4BVbp-46">
          <mxGeometry x="-0.7017" y="1" relative="1" as="geometry">
            <mxPoint x="12" y="1" as="offset" />
          </mxGeometry>
        </mxCell>
        <mxCell id="90E-FSOEFrYvkNQ4BVbp-50" value="" style="endArrow=classic;html=1;rounded=0;entryX=0.565;entryY=0.014;entryDx=0;entryDy=0;entryPerimeter=0;exitX=0.107;exitY=1.055;exitDx=0;exitDy=0;exitPerimeter=0;" edge="1" parent="1" source="90E-FSOEFrYvkNQ4BVbp-3" target="90E-FSOEFrYvkNQ4BVbp-36">
          <mxGeometry relative="1" as="geometry">
            <mxPoint x="190" y="170" as="sourcePoint" />
            <mxPoint x="290" y="170" as="targetPoint" />
            <Array as="points">
              <mxPoint x="237" y="160" />
            </Array>
          </mxGeometry>
        </mxCell>
        <mxCell id="90E-FSOEFrYvkNQ4BVbp-52" value="А" style="edgeLabel;html=1;align=center;verticalAlign=middle;resizable=0;points=[];" vertex="1" connectable="0" parent="90E-FSOEFrYvkNQ4BVbp-50">
          <mxGeometry x="0.0307" y="1" relative="1" as="geometry">
            <mxPoint as="offset" />
          </mxGeometry>
        </mxCell>
        <mxCell id="90E-FSOEFrYvkNQ4BVbp-53" value="Правила прийому &lt;br&gt;нового пацієнта" style="edgeLabel;html=1;align=center;verticalAlign=middle;resizable=0;points=[];" vertex="1" connectable="0" parent="90E-FSOEFrYvkNQ4BVbp-50">
          <mxGeometry x="0.1299" y="2" relative="1" as="geometry">
            <mxPoint x="-9" y="-10" as="offset" />
          </mxGeometry>
        </mxCell>
        <mxCell id="90E-FSOEFrYvkNQ4BVbp-54" value="" style="endArrow=classic;html=1;rounded=0;entryX=0.133;entryY=0.014;entryDx=0;entryDy=0;entryPerimeter=0;exitX=0.433;exitY=0.989;exitDx=0;exitDy=0;exitPerimeter=0;" edge="1" parent="1" source="90E-FSOEFrYvkNQ4BVbp-3" target="90E-FSOEFrYvkNQ4BVbp-38">
          <mxGeometry relative="1" as="geometry">
            <mxPoint x="285" y="180" as="sourcePoint" />
            <mxPoint x="385" y="180" as="targetPoint" />
          </mxGeometry>
        </mxCell>
        <mxCell id="90E-FSOEFrYvkNQ4BVbp-57" value="База даних&lt;br&gt;зареєстрованих&lt;br&gt;пацієнтів" style="edgeLabel;html=1;align=center;verticalAlign=middle;resizable=0;points=[];" vertex="1" connectable="0" parent="90E-FSOEFrYvkNQ4BVbp-54">
          <mxGeometry x="-0.5218" relative="1" as="geometry">
            <mxPoint as="offset" />
          </mxGeometry>
        </mxCell>
        <mxCell id="90E-FSOEFrYvkNQ4BVbp-58" value="Запит на&lt;br&gt;реєстрацію" style="edgeLabel;html=1;align=center;verticalAlign=middle;resizable=0;points=[];" vertex="1" connectable="0" parent="90E-FSOEFrYvkNQ4BVbp-54">
          <mxGeometry x="0.4746" y="-1" relative="1" as="geometry">
            <mxPoint x="52" y="1" as="offset" />
          </mxGeometry>
        </mxCell>
        <mxCell id="90E-FSOEFrYvkNQ4BVbp-62" value="" style="endArrow=none;dashed=1;html=1;dashPattern=1 3;strokeWidth=2;rounded=0;" edge="1" parent="1">
          <mxGeometry width="50" height="50" relative="1" as="geometry">
            <mxPoint x="290" y="240" as="sourcePoint" />
            <mxPoint x="340" y="240" as="targetPoint" />
          </mxGeometry>
        </mxCell>
        <mxCell id="90E-FSOEFrYvkNQ4BVbp-63" value="" style="endArrow=classic;html=1;rounded=0;entryX=0.899;entryY=-0.025;entryDx=0;entryDy=0;entryPerimeter=0;exitX=0.779;exitY=0.979;exitDx=0;exitDy=0;exitPerimeter=0;" edge="1" parent="1" source="90E-FSOEFrYvkNQ4BVbp-3" target="90E-FSOEFrYvkNQ4BVbp-38">
          <mxGeometry relative="1" as="geometry">
            <mxPoint x="340" y="260" as="sourcePoint" />
            <mxPoint x="440" y="260" as="targetPoint" />
            <Array as="points" />
          </mxGeometry>
        </mxCell>
        <mxCell id="90E-FSOEFrYvkNQ4BVbp-64" value="Перелік необхідних&lt;br&gt;документів та&lt;br&gt;інформації" style="edgeLabel;resizable=0;html=1;align=center;verticalAlign=middle;" connectable="0" vertex="1" parent="90E-FSOEFrYvkNQ4BVbp-63">
          <mxGeometry relative="1" as="geometry">
            <mxPoint x="10" y="-9" as="offset" />
          </mxGeometry>
        </mxCell>
        <mxCell id="90E-FSOEFrYvkNQ4BVbp-66" value="" style="endArrow=classic;html=1;rounded=0;entryX=0.899;entryY=-0.025;entryDx=0;entryDy=0;entryPerimeter=0;exitX=1;exitY=1;exitDx=0;exitDy=0;" edge="1" parent="1" source="90E-FSOEFrYvkNQ4BVbp-8">
          <mxGeometry relative="1" as="geometry">
            <mxPoint x="492" y="220" as="sourcePoint" />
            <mxPoint x="490" y="340" as="targetPoint" />
            <Array as="points" />
          </mxGeometry>
        </mxCell>
        <mxCell id="90E-FSOEFrYvkNQ4BVbp-67" value="Перелік необхідних&lt;br&gt;документів та&lt;br&gt;інформації" style="edgeLabel;resizable=0;html=1;align=center;verticalAlign=middle;" connectable="0" vertex="1" parent="90E-FSOEFrYvkNQ4BVbp-66">
          <mxGeometry relative="1" as="geometry">
            <mxPoint x="20" y="-65" as="offset" />
          </mxGeometry>
        </mxCell>
        <mxCell id="90E-FSOEFrYvkNQ4BVbp-68" value="" style="endArrow=classic;html=1;rounded=0;exitX=1;exitY=0.25;exitDx=0;exitDy=0;entryX=0.074;entryY=-0.06;entryDx=0;entryDy=0;entryPerimeter=0;" edge="1" parent="1" source="90E-FSOEFrYvkNQ4BVbp-38" target="90E-FSOEFrYvkNQ4BVbp-41">
          <mxGeometry relative="1" as="geometry">
            <mxPoint x="450" y="300" as="sourcePoint" />
            <mxPoint x="550" y="300" as="targetPoint" />
            <Array as="points">
              <mxPoint x="698" y="285" />
            </Array>
          </mxGeometry>
        </mxCell>
        <mxCell id="90E-FSOEFrYvkNQ4BVbp-70" value="" style="endArrow=none;dashed=1;html=1;dashPattern=1 3;strokeWidth=2;rounded=0;" edge="1" parent="1">
          <mxGeometry width="50" height="50" relative="1" as="geometry">
            <mxPoint x="430" y="290" as="sourcePoint" />
            <mxPoint x="458" y="270" as="targetPoint" />
          </mxGeometry>
        </mxCell>
        <mxCell id="90E-FSOEFrYvkNQ4BVbp-71" value="Наявність пацієнта с такими даними у системі" style="text;html=1;strokeColor=none;fillColor=none;align=center;verticalAlign=middle;whiteSpace=wrap;rounded=0;" vertex="1" parent="1">
          <mxGeometry x="415" y="250" width="120" height="10" as="geometry" />
        </mxCell>
        <mxCell id="90E-FSOEFrYvkNQ4BVbp-72" value="" style="endArrow=none;dashed=1;html=1;dashPattern=1 3;strokeWidth=2;rounded=0;" edge="1" parent="1">
          <mxGeometry width="50" height="50" relative="1" as="geometry">
            <mxPoint x="420" y="340" as="sourcePoint" />
            <mxPoint x="500" y="300" as="targetPoint" />
          </mxGeometry>
        </mxCell>
        <mxCell id="90E-FSOEFrYvkNQ4BVbp-73" value="Дані про пацієнта" style="edgeLabel;resizable=0;html=1;align=center;verticalAlign=middle;" connectable="0" vertex="1" parent="1">
          <mxGeometry x="540" y="299.9980952380952" as="geometry" />
        </mxCell>
        <mxCell id="90E-FSOEFrYvkNQ4BVbp-74" value="" style="endArrow=classic;html=1;rounded=0;entryX=0.866;entryY=0.006;entryDx=0;entryDy=0;entryPerimeter=0;exitX=0.294;exitY=1.229;exitDx=0;exitDy=0;exitPerimeter=0;" edge="1" parent="1" source="90E-FSOEFrYvkNQ4BVbp-13" target="90E-FSOEFrYvkNQ4BVbp-39">
          <mxGeometry relative="1" as="geometry">
            <mxPoint x="490" y="320" as="sourcePoint" />
            <mxPoint x="590" y="320" as="targetPoint" />
            <Array as="points">
              <mxPoint x="525" y="250" />
            </Array>
          </mxGeometry>
        </mxCell>
        <mxCell id="90E-FSOEFrYvkNQ4BVbp-76" value="Електро-система перевірки&lt;br&gt;документів" style="edgeLabel;html=1;align=center;verticalAlign=middle;resizable=0;points=[];" vertex="1" connectable="0" parent="90E-FSOEFrYvkNQ4BVbp-74">
          <mxGeometry x="-0.2911" relative="1" as="geometry">
            <mxPoint as="offset" />
          </mxGeometry>
        </mxCell>
        <mxCell id="90E-FSOEFrYvkNQ4BVbp-77" value="" style="endArrow=classic;html=1;rounded=0;entryX=0.323;entryY=-0.012;entryDx=0;entryDy=0;entryPerimeter=0;" edge="1" parent="1" target="90E-FSOEFrYvkNQ4BVbp-41">
          <mxGeometry relative="1" as="geometry">
            <mxPoint x="540" y="350" as="sourcePoint" />
            <mxPoint x="640" y="350" as="targetPoint" />
            <Array as="points">
              <mxPoint x="726" y="350" />
            </Array>
          </mxGeometry>
        </mxCell>
        <mxCell id="90E-FSOEFrYvkNQ4BVbp-79" value="Відсутність громадянства&lt;br&gt;&amp;nbsp;України" style="edgeLabel;html=1;align=center;verticalAlign=middle;resizable=0;points=[];" vertex="1" connectable="0" parent="90E-FSOEFrYvkNQ4BVbp-77">
          <mxGeometry x="-0.5152" y="-1" relative="1" as="geometry">
            <mxPoint x="3" as="offset" />
          </mxGeometry>
        </mxCell>
        <mxCell id="90E-FSOEFrYvkNQ4BVbp-81" value="" style="endArrow=classic;html=1;rounded=0;entryX=0.206;entryY=0.002;entryDx=0;entryDy=0;entryPerimeter=0;exitX=0.772;exitY=1;exitDx=0;exitDy=0;exitPerimeter=0;" edge="1" parent="1" source="90E-FSOEFrYvkNQ4BVbp-13" target="90E-FSOEFrYvkNQ4BVbp-40">
          <mxGeometry relative="1" as="geometry">
            <mxPoint x="600" y="210" as="sourcePoint" />
            <mxPoint x="700" y="210" as="targetPoint" />
            <Array as="points" />
          </mxGeometry>
        </mxCell>
        <mxCell id="90E-FSOEFrYvkNQ4BVbp-83" value="Порядок реєстрації &lt;br&gt;пацієнтів у системі" style="edgeLabel;html=1;align=center;verticalAlign=middle;resizable=0;points=[];" vertex="1" connectable="0" parent="90E-FSOEFrYvkNQ4BVbp-81">
          <mxGeometry x="-0.766" y="-2" relative="1" as="geometry">
            <mxPoint x="19" y="10" as="offset" />
          </mxGeometry>
        </mxCell>
        <mxCell id="90E-FSOEFrYvkNQ4BVbp-84" value="" style="endArrow=classic;html=1;rounded=0;entryX=0.788;entryY=-0.017;entryDx=0;entryDy=0;entryPerimeter=0;exitX=0.311;exitY=0.9;exitDx=0;exitDy=0;exitPerimeter=0;" edge="1" parent="1" source="90E-FSOEFrYvkNQ4BVbp-17" target="90E-FSOEFrYvkNQ4BVbp-40">
          <mxGeometry relative="1" as="geometry">
            <mxPoint x="610" y="220" as="sourcePoint" />
            <mxPoint x="710" y="220" as="targetPoint" />
          </mxGeometry>
        </mxCell>
        <mxCell id="90E-FSOEFrYvkNQ4BVbp-86" value="Електронна система&lt;br&gt;реєстрації пацієнта" style="edgeLabel;html=1;align=center;verticalAlign=middle;resizable=0;points=[];" vertex="1" connectable="0" parent="90E-FSOEFrYvkNQ4BVbp-84">
          <mxGeometry x="-0.3538" y="-2" relative="1" as="geometry">
            <mxPoint as="offset" />
          </mxGeometry>
        </mxCell>
        <mxCell id="90E-FSOEFrYvkNQ4BVbp-87" value="Перевірені дані" style="text;html=1;strokeColor=none;fillColor=none;align=center;verticalAlign=middle;whiteSpace=wrap;rounded=0;" vertex="1" parent="1">
          <mxGeometry x="585" y="370" width="60" height="30" as="geometry" />
        </mxCell>
        <mxCell id="90E-FSOEFrYvkNQ4BVbp-88" value="" style="endArrow=none;dashed=1;html=1;dashPattern=1 3;strokeWidth=2;rounded=0;" edge="1" parent="1" target="90E-FSOEFrYvkNQ4BVbp-87">
          <mxGeometry width="50" height="50" relative="1" as="geometry">
            <mxPoint x="550" y="410" as="sourcePoint" />
            <mxPoint x="600" y="360" as="targetPoint" />
          </mxGeometry>
        </mxCell>
        <mxCell id="90E-FSOEFrYvkNQ4BVbp-89" value="" style="endArrow=classic;html=1;rounded=0;entryX=0.999;entryY=0.636;entryDx=0;entryDy=0;entryPerimeter=0;" edge="1" parent="1" target="90E-FSOEFrYvkNQ4BVbp-1">
          <mxGeometry relative="1" as="geometry">
            <mxPoint x="800" y="510" as="sourcePoint" />
            <mxPoint x="900" y="510" as="targetPoint" />
            <Array as="points">
              <mxPoint x="800" y="437" />
            </Array>
          </mxGeometry>
        </mxCell>
        <mxCell id="90E-FSOEFrYvkNQ4BVbp-90" value="Підтвердження&lt;br&gt;реєстрації" style="edgeLabel;resizable=0;html=1;align=center;verticalAlign=middle;" connectable="0" vertex="1" parent="90E-FSOEFrYvkNQ4BVbp-89">
          <mxGeometry relative="1" as="geometry">
            <mxPoint x="-20" y="-4" as="offset" />
          </mxGeometry>
        </mxCell>
        <mxCell id="90E-FSOEFrYvkNQ4BVbp-91" value="" style="endArrow=classic;html=1;rounded=0;entryX=0.182;entryY=1.017;entryDx=0;entryDy=0;entryPerimeter=0;" edge="1" parent="1">
          <mxGeometry relative="1" as="geometry">
            <mxPoint x="700" y="580" as="sourcePoint" />
            <mxPoint x="700.02" y="541.02" as="targetPoint" />
          </mxGeometry>
        </mxCell>
        <mxCell id="90E-FSOEFrYvkNQ4BVbp-95" value="Працівник&lt;br&gt;реєстратури" style="edgeLabel;html=1;align=center;verticalAlign=middle;resizable=0;points=[];" vertex="1" connectable="0" parent="90E-FSOEFrYvkNQ4BVbp-91">
          <mxGeometry x="-0.1449" relative="1" as="geometry">
            <mxPoint as="offset" />
          </mxGeometry>
        </mxCell>
        <mxCell id="90E-FSOEFrYvkNQ4BVbp-93" value="" style="endArrow=classic;html=1;rounded=0;entryX=0.655;entryY=0.972;entryDx=0;entryDy=0;entryPerimeter=0;exitX=0.71;exitY=0;exitDx=0;exitDy=0;exitPerimeter=0;" edge="1" parent="1">
          <mxGeometry relative="1" as="geometry">
            <mxPoint x="774.83" y="580" as="sourcePoint" />
            <mxPoint x="774.88" y="540" as="targetPoint" />
            <Array as="points" />
          </mxGeometry>
        </mxCell>
        <mxCell id="90E-FSOEFrYvkNQ4BVbp-98" value="Сімейний&lt;br&gt;лікар" style="edgeLabel;html=1;align=center;verticalAlign=middle;resizable=0;points=[];" vertex="1" connectable="0" parent="90E-FSOEFrYvkNQ4BVbp-93">
          <mxGeometry x="-0.15" relative="1" as="geometry">
            <mxPoint as="offset" />
          </mxGeometry>
        </mxCell>
        <mxCell id="90E-FSOEFrYvkNQ4BVbp-99" value="" style="endArrow=classic;html=1;rounded=0;entryX=0.636;entryY=1;entryDx=0;entryDy=0;entryPerimeter=0;" edge="1" parent="1" target="90E-FSOEFrYvkNQ4BVbp-40">
          <mxGeometry relative="1" as="geometry">
            <mxPoint x="630" y="580" as="sourcePoint" />
            <mxPoint x="730" y="580" as="targetPoint" />
          </mxGeometry>
        </mxCell>
        <mxCell id="90E-FSOEFrYvkNQ4BVbp-100" value="Сімейний&lt;br&gt;лікар" style="edgeLabel;resizable=0;html=1;align=center;verticalAlign=middle;" connectable="0" vertex="1" parent="90E-FSOEFrYvkNQ4BVbp-99">
          <mxGeometry relative="1" as="geometry" />
        </mxCell>
        <mxCell id="90E-FSOEFrYvkNQ4BVbp-101" value="" style="endArrow=classic;html=1;rounded=0;entryX=0.636;entryY=1;entryDx=0;entryDy=0;entryPerimeter=0;" edge="1" parent="1">
          <mxGeometry relative="1" as="geometry">
            <mxPoint x="580" y="580" as="sourcePoint" />
            <mxPoint x="580" y="470" as="targetPoint" />
          </mxGeometry>
        </mxCell>
        <mxCell id="90E-FSOEFrYvkNQ4BVbp-102" value="Працівник&lt;br&gt;реєстратури" style="edgeLabel;resizable=0;html=1;align=center;verticalAlign=middle;" connectable="0" vertex="1" parent="90E-FSOEFrYvkNQ4BVbp-101">
          <mxGeometry relative="1" as="geometry">
            <mxPoint x="-10" as="offset" />
          </mxGeometry>
        </mxCell>
        <mxCell id="90E-FSOEFrYvkNQ4BVbp-104" value="" style="endArrow=classic;html=1;rounded=0;entryX=0.029;entryY=1.064;entryDx=0;entryDy=0;entryPerimeter=0;" edge="1" parent="1" target="90E-FSOEFrYvkNQ4BVbp-36">
          <mxGeometry relative="1" as="geometry">
            <mxPoint x="175" y="579.4300000000001" as="sourcePoint" />
            <mxPoint x="275" y="579.4300000000001" as="targetPoint" />
          </mxGeometry>
        </mxCell>
        <mxCell id="90E-FSOEFrYvkNQ4BVbp-105" value="Працівник&lt;br&gt;приймального&lt;br&gt;відділеня" style="edgeLabel;resizable=0;html=1;align=center;verticalAlign=middle;" connectable="0" vertex="1" parent="90E-FSOEFrYvkNQ4BVbp-104">
          <mxGeometry relative="1" as="geometry" />
        </mxCell>
        <mxCell id="90E-FSOEFrYvkNQ4BVbp-106" value="" style="endArrow=classic;html=1;rounded=0;entryX=0.029;entryY=1.064;entryDx=0;entryDy=0;entryPerimeter=0;" edge="1" parent="1">
          <mxGeometry relative="1" as="geometry">
            <mxPoint x="240" y="580.0000000000001" as="sourcePoint" />
            <mxPoint x="243" y="264.57" as="targetPoint" />
          </mxGeometry>
        </mxCell>
        <mxCell id="90E-FSOEFrYvkNQ4BVbp-107" value="Працівник&lt;br&gt;реєстратури" style="edgeLabel;resizable=0;html=1;align=center;verticalAlign=middle;" connectable="0" vertex="1" parent="90E-FSOEFrYvkNQ4BVbp-106">
          <mxGeometry relative="1" as="geometry">
            <mxPoint x="9" as="offset" />
          </mxGeometry>
        </mxCell>
        <mxCell id="90E-FSOEFrYvkNQ4BVbp-108" value="" style="endArrow=classic;html=1;rounded=0;entryX=0.129;entryY=1.031;entryDx=0;entryDy=0;entryPerimeter=0;exitX=0.262;exitY=0.043;exitDx=0;exitDy=0;exitPerimeter=0;" edge="1" parent="1" source="90E-FSOEFrYvkNQ4BVbp-31" target="90E-FSOEFrYvkNQ4BVbp-38">
          <mxGeometry relative="1" as="geometry">
            <mxPoint x="290" y="579.4300000000001" as="sourcePoint" />
            <mxPoint x="390" y="579.4300000000001" as="targetPoint" />
          </mxGeometry>
        </mxCell>
        <mxCell id="90E-FSOEFrYvkNQ4BVbp-109" value="Працівник&lt;br&gt;реєстратури" style="edgeLabel;resizable=0;html=1;align=center;verticalAlign=middle;" connectable="0" vertex="1" parent="90E-FSOEFrYvkNQ4BVbp-108">
          <mxGeometry relative="1" as="geometry" />
        </mxCell>
        <mxCell id="90E-FSOEFrYvkNQ4BVbp-110" value="" style="endArrow=classic;html=1;rounded=0;entryX=0.129;entryY=1.031;entryDx=0;entryDy=0;entryPerimeter=0;exitX=0.262;exitY=0.043;exitDx=0;exitDy=0;exitPerimeter=0;" edge="1" parent="1">
          <mxGeometry relative="1" as="geometry">
            <mxPoint x="390" y="580" as="sourcePoint" />
            <mxPoint x="391" y="330" as="targetPoint" />
          </mxGeometry>
        </mxCell>
        <mxCell id="90E-FSOEFrYvkNQ4BVbp-111" value="Сімейний лікар" style="edgeLabel;resizable=0;html=1;align=center;verticalAlign=middle;" connectable="0" vertex="1" parent="90E-FSOEFrYvkNQ4BVbp-110">
          <mxGeometry relative="1" as="geometry" />
        </mxCell>
        <mxCell id="90E-FSOEFrYvkNQ4BVbp-112" value="" style="endArrow=classic;html=1;rounded=0;entryX=0.708;entryY=0.998;entryDx=0;entryDy=0;entryPerimeter=0;" edge="1" parent="1" target="90E-FSOEFrYvkNQ4BVbp-39">
          <mxGeometry relative="1" as="geometry">
            <mxPoint x="510" y="580" as="sourcePoint" />
            <mxPoint x="510" y="470" as="targetPoint" />
          </mxGeometry>
        </mxCell>
        <mxCell id="90E-FSOEFrYvkNQ4BVbp-113" value="Працівник&lt;br&gt;реєстратури" style="edgeLabel;resizable=0;html=1;align=center;verticalAlign=middle;" connectable="0" vertex="1" parent="90E-FSOEFrYvkNQ4BVbp-112">
          <mxGeometry relative="1" as="geometry">
            <mxPoint x="-10" as="offset" />
          </mxGeometry>
        </mxCell>
        <mxCell id="90E-FSOEFrYvkNQ4BVbp-114" value="" style="endArrow=classic;html=1;rounded=0;entryX=0.708;entryY=0.998;entryDx=0;entryDy=0;entryPerimeter=0;" edge="1" parent="1">
          <mxGeometry relative="1" as="geometry">
            <mxPoint x="442" y="580" as="sourcePoint" />
            <mxPoint x="440" y="400" as="targetPoint" />
          </mxGeometry>
        </mxCell>
        <mxCell id="90E-FSOEFrYvkNQ4BVbp-115" value="Електронна&lt;br&gt;система&lt;br&gt;перевірки&lt;br&gt;документів" style="edgeLabel;resizable=0;html=1;align=center;verticalAlign=middle;" connectable="0" vertex="1" parent="90E-FSOEFrYvkNQ4BVbp-114">
          <mxGeometry relative="1" as="geometry">
            <mxPoint x="-10" as="offset" />
          </mxGeometry>
        </mxCell>
        <mxCell id="90E-FSOEFrYvkNQ4BVbp-116" value="" style="endArrow=classic;html=1;rounded=0;entryX=0.552;entryY=-0.031;entryDx=0;entryDy=0;entryPerimeter=0;exitX=0.296;exitY=1.026;exitDx=0;exitDy=0;exitPerimeter=0;" edge="1" parent="1" source="90E-FSOEFrYvkNQ4BVbp-19" target="90E-FSOEFrYvkNQ4BVbp-41">
          <mxGeometry relative="1" as="geometry">
            <mxPoint x="680" y="229.70999999999998" as="sourcePoint" />
            <mxPoint x="780" y="229.70999999999998" as="targetPoint" />
          </mxGeometry>
        </mxCell>
        <mxCell id="90E-FSOEFrYvkNQ4BVbp-117" value="Порядок реєстрації&lt;br&gt;пацієнтів у системі" style="edgeLabel;resizable=0;html=1;align=center;verticalAlign=middle;" connectable="0" vertex="1" parent="90E-FSOEFrYvkNQ4BVbp-116">
          <mxGeometry relative="1" as="geometry">
            <mxPoint y="-135" as="offset" />
          </mxGeometry>
        </mxCell>
      </root>
    </mxGraphModel>
  </diagram>
</mxfile>
